/* XPM */
static char *_a3c61ba46e34f47b89edb4e63ad20beuE136jw2WwmYp7DP[] = {
/* columns rows colors chars-per-pixel */
"24 24 2 1 ",
"  c None",
". c black",
/* pixels */
"                        ",
"         ........       ",
"         ........       ",
"                 ..     ",
"                 ..     ",
"                 ..     ",
"                 ..     ",
"                 ..     ",
"                 ..     ",
"                 ..     ",
"                 ..     ",
"         ........       ",
"         ........       ",
"       ..               ",
"       ..               ",
"       ..               ",
"       ..               ",
"       ..               ",
"       ..               ",
"       ..               ",
"       ..               ",
"         ........       ",
"         ........       ",
"                        "
};
