/* XPM */
static char *b2eca01022b2435dfb96a21f7fc47ee7QCJ9x6NhPlZQnx4p[] = {
/* columns rows colors chars-per-pixel */
"24 24 2 1 ",
"  c None",
". c black",
/* pixels */
"                        ",
"         ........       ",
"         ........       ",
"       ..               ",
"       ..               ",
"       ..               ",
"       ..               ",
"       ..               ",
"       ..               ",
"       ..               ",
"       ..               ",
"         ........       ",
"         ........       ",
"                 ..     ",
"                 ..     ",
"                 ..     ",
"                 ..     ",
"                 ..     ",
"                 ..     ",
"                 ..     ",
"                 ..     ",
"         ........       ",
"         ........       ",
"                        "
};
