/* XPM */
static char *_f0c4c0c503c4dbfa6139a13469ce63fY10qmTmhkBF2yTDK[] = {
/* columns rows colors chars-per-pixel */
"24 24 2 1 ",
"  c None",
". c black",
/* pixels */
"                        ",
"         ........       ",
"         ........       ",
"       ..               ",
"       ..               ",
"       ..               ",
"       ..               ",
"       ..               ",
"       ..               ",
"       ..               ",
"       ..               ",
"         ........       ",
"         ........       ",
"       ..        ..     ",
"       ..        ..     ",
"       ..        ..     ",
"       ..        ..     ",
"       ..        ..     ",
"       ..        ..     ",
"       ..        ..     ",
"       ..        ..     ",
"         ........       ",
"         ........       ",
"                        "
};
