/* XPM */
static char *bd89ee40f9ed4be0a96a9a06f3985a5feGVDcwkawAM15iZ7[] = {
/* columns rows colors chars-per-pixel */
"24 24 2 1 ",
"  c None",
". c black",
/* pixels */
"                        ",
"         ........       ",
"         ........       ",
"       ..        ..     ",
"       ..        ..     ",
"       ..        ..     ",
"       ..        ..     ",
"       ..        ..     ",
"       ..        ..     ",
"       ..        ..     ",
"       ..        ..     ",
"         ........       ",
"         ........       ",
"                 ..     ",
"                 ..     ",
"                 ..     ",
"                 ..     ",
"                 ..     ",
"                 ..     ",
"                 ..     ",
"                 ..     ",
"         ........       ",
"         ........       ",
"                        "
};
