/* XPM */
static char *_collectible_2[] = {
/* columns rows colors chars-per-pixel */
"50 50 5 1 ",
"  c None",
". c black",
"X c #D47636",
"o c #FBAF3C",
"O c #FFE95F",
/* pixels */
"                                                  ",
"                                                  ",
"                                                  ",
"                                                  ",
"                                                  ",
"                                                  ",
"                                                  ",
"                                                  ",
"                                                  ",
"                                                  ",
"                                                  ",
"                                                  ",
"                                                  ",
"                     .......                      ",
"                    .XoOOooo.                     ",
"                   .XooO.Xooo.                    ",
"                  .Xooo. .Xooo.                   ",
"                 .Xooo.   .XooO.                  ",
"                 .ooo.     .XoO.                  ",
"                 .Xooo.   .XooO.                  ",
"                  .Xooo. .Xooo.                   ",
"                   .XooO.Xooo.                    ",
"                    .XoOOooo.                     ",
"                     .XOOoo.                      ",
"                      .XXX.                       ",
"                      .XXo.                       ",
"                      .XXO.                       ",
"                      .XXO.                       ",
"                      .XXO...                     ",
"                      .XXO.oO.                    ",
"                      .XXo.oO.                    ",
"                      .XXoXo.                     ",
"                      .XXOXoO.                    ",
"                      .XXOXo.                     ",
"                      .XXo.oo.                    ",
"                       ... ..                     ",
"                                                  ",
"                                                  ",
"                                                  ",
"                                                  ",
"                                                  ",
"                                                  ",
"                                                  ",
"                                                  ",
"                                                  ",
"                                                  ",
"                                                  ",
"                                                  ",
"                                                  ",
"                                                  "
};
