/* XPM */
static char *_collectible[] = {
/* columns rows colors chars-per-pixel */
"50 50 5 1 ",
"  c None",
". c black",
"X c #D47636",
"o c #FBAF3C",
"O c #FFE95F",
/* pixels */
"                                                  ",
"                                                  ",
"                                                  ",
"                                                  ",
"                                                  ",
"                                                  ",
"                                                  ",
"                                                  ",
"                                                  ",
"                                                  ",
"                                                  ",
"                                                  ",
"                                                  ",
"                   ...........                    ",
"                  .XXoooOOoooo.                   ",
"                 .XXooooOOooooO.                  ",
"                 .XXooo..XooooO.                  ",
"                 .XXoo.  .XoooO.                  ",
"                 .XXoo.  .XoooO.                  ",
"                 .XXooo..XooooO.                  ",
"                 .XXooooOOooooO.                  ",
"                 .XXooooOOooooO.                  ",
"                  .XXoooOOoooo.                   ",
"                   ...XoOOo...                    ",
"                      .XXX.                       ",
"                      .XXo.                       ",
"                      .XXO.                       ",
"                      .XXO.                       ",
"                      .XXOX..                     ",
"                      .XXOXOO.                    ",
"                      .XXoXo.                     ",
"                      .XXoooO.                    ",
"                      .XXoXo.                     ",
"                      .XXOXoO.                    ",
"                      .XXOXoo.                    ",
"                       ......                     ",
"                                                  ",
"                                                  ",
"                                                  ",
"                                                  ",
"                                                  ",
"                                                  ",
"                                                  ",
"                                                  ",
"                                                  ",
"                                                  ",
"                                                  ",
"                                                  ",
"                                                  ",
"                                                  "
};
