/* XPM */
static char *_collectible_3[] = {
/* columns rows colors chars-per-pixel */
"50 50 5 1 ",
"  c None",
". c black",
"X c #D47636",
"o c #FBAF3C",
"O c #FFE95F",
/* pixels */
"                                                  ",
"                                                  ",
"                                                  ",
"                                                  ",
"                                                  ",
"                                                  ",
"                                                  ",
"                                                  ",
"                                                  ",
"                                                  ",
"                                                  ",
"                       ...                        ",
"                      .XOO.                       ",
"                     .XoOOo.                      ",
"                    .Xoo.Xoo.                     ",
"                    .Xo. .Xo.                     ",
"                  ...Xo. .Xo...                   ",
"                 .Xooooo.XooOoo.                  ",
"                .XooooooOOooOooo.                 ",
"               .Xoo..XooOOoo..XoO.                ",
"               .Xo.  .XoOOo.  .XO.                ",
"               .Xo.  .XoOOo.  .XO.                ",
"               .Xoo..XooOOoo..XoO.                ",
"                .XooooooOOooOooo.                 ",
"                 .XoooooOOooOoo.                  ",
"                  .....XXX.....                   ",
"                      .XXo.                       ",
"                      .XXO.                       ",
"                      .XXO.                       ",
"                      .XXO...                     ",
"                      .XXO.oO.                    ",
"                      .XX.Xo.                     ",
"                      .XXoXo.                     ",
"                      .XXOXoO.                    ",
"                      .XX.Xo.                     ",
"                      .XX..oo.                    ",
"                       ..  ..                     ",
"                                                  ",
"                                                  ",
"                                                  ",
"                                                  ",
"                                                  ",
"                                                  ",
"                                                  ",
"                                                  ",
"                                                  ",
"                                                  ",
"                                                  ",
"                                                  ",
"                                                  "
};
