/* XPM */
static char *_af7fe7f424e408cef8e2f7c552b9042KtLbmtRtjQ44Aqsh[] = {
/* columns rows colors chars-per-pixel */
"50 50 5 1 ",
"  c None",
". c #622C0C",
"X c #0B5101",
"o c #159D02",
"O c #18BD00",
/* pixels */
"                                                  ",
"                                                  ",
"                                                  ",
"                                                  ",
"                                                  ",
"                                                  ",
"                                                  ",
"                                                  ",
"                                                  ",
"                                                  ",
"                                                  ",
"                                                  ",
"                                                  ",
"                                                  ",
"                                                  ",
"                                                  ",
"                   XXXXXXXXXX                     ",
"                   XXXXXXXXXX                     ",
"                 XXOOOOooooooXXXX                 ",
"                 XXOOOOooooooXXXX                 ",
"               XXooooooooooooooooXX               ",
"               XXooooooooooooooooXX               ",
"               XXooooooOOooooooooOOXX             ",
"               XXooooooOOooooooooOOXX             ",
"             XXooooooooooooooooooooXX             ",
"             XXooooooooooooooooooooXX             ",
"           XXOOooooooooooooooooooooXX             ",
"           XXOOooooooooooooooooooooXX             ",
"         XXOOOOooooooooooooooooooooooXX           ",
"         XXOOOOooooooooooooooooooooooXX           ",
"         XXXXooooooooooooooooooooooooooXX         ",
"         XXXXooooooooooooooooooooooooooXX         ",
"         XXXXooooooooooooooooooooooooooXX         ",
"         XXXXooooooooooooooooooooooooooXX         ",
"         XXXXXXooooooooXXXXXXooooooooXXXX         ",
"         XXXXXXooooooooXXXXXXooooooooXXXX         ",
"           XXXXXXXXooooXXXXXXXXXXXXXXXX           ",
"           XXXXXXXXooooXXXXXXXXXXXXXXXX           ",
"             XXXXXXXXXXXXXXXXXXXXXXXX             ",
"             XXXXXXXXXXXXXXXXXXXXXXXX             ",
"                 XXXXXXXXXXXXXX                   ",
"                 XXXXXXXXXXXXXX                   ",
"                     ........                     ",
"                     ........                     ",
"                       ....                       ",
"                       ....                       ",
"                       ....                       ",
"                       ....                       ",
"                       ....                       ",
"                       ....                       "
};
