/* XPM */
static char *_exit[] = {
/* columns rows colors chars-per-pixel */
"50 50 2 1 ",
"  c #86AF26",
". c #86CC26",
/* pixels */
"                                                  ",
"                                                  ",
"                                                  ",
"   ............................................   ",
"   ............................................   ",
"   ............................................   ",
"   ............................................   ",
"   ............................................   ",
"   ............................................   ",
"   ............................................   ",
"   ..........                      ............   ",
"   ..........                      ............   ",
"   ..........                      ............   ",
"   ..........   ...............................   ",
"   ..........   ...............................   ",
"   ..........   ...............................   ",
"   ..........   ...............................   ",
"   ..........   ...............................   ",
"   ..........   ...............................   ",
"   ..........   ...............................   ",
"   ..........   ...............................   ",
"   ..........   ...............................   ",
"   ..........   ...............................   ",
"   ..........   ...............................   ",
"   ..........                 .................   ",
"   ..........                 .................   ",
"   ..........                 .................   ",
"   ..........   ...............................   ",
"   ..........   ...............................   ",
"   ..........   ...............................   ",
"   ..........   ...............................   ",
"   ..........   ...............................   ",
"   ..........   ...............................   ",
"   ..........   ...............................   ",
"   ..........   ...............................   ",
"   ..........   ...............................   ",
"   ..........   ...............................   ",
"   ..........   ...............................   ",
"   ..........                      ............   ",
"   ..........                      ............   ",
"   ..........                      ............   ",
"   ............................................   ",
"   ............................................   ",
"   ............................................   ",
"   ............................................   ",
"   ............................................   ",
"   ............................................   ",
"                                                  ",
"                                                  ",
"                                                  "
};
