/* XPM */
static char *b5d1e200232143c79a2521b987c555a4HY9iLS1m9lTewWXH[] = {
/* columns rows colors chars-per-pixel */
"50 50 7 1 ",
"  c None",
". c black",
"X c gray20",
"o c #8F563B",
"O c #D95763",
"+ c #EEC39A",
"@ c gray85",
/* pixels */
"                                                  ",
"                                                  ",
"                    oo                            ",
"                    oo                            ",
"                  oooooooooooo                    ",
"                  oooooooooooo                    ",
"                oooooooooooooooo                  ",
"                oooooooooooooooo                  ",
"                ++++++++++++oooo                  ",
"                ++++++++++++oooo                  ",
"                ++..++++..++++oo                  ",
"                ++..++++..++++oo                  ",
"                ++++++++++++++++                  ",
"                ++++++++++++++++                  ",
"                ++++OOOOO+++++++                  ",
"                ++++OOOOO+++++++                  ",
"                  ++++++++++++                    ",
"                  ++++++++++++                    ",
"                    +++++++++                     ",
"                    +++++++++                     ",
"                XXXXXX++++++XXXXXX                ",
"                XXXXXX++++++XXXXXX                ",
"                XXXXXXXXXXXXXXXXXX                ",
"                XXXXXXXXXXXXXXXXXX                ",
"                XXXXXXXXXXXXXXXXXX                ",
"                XXXXXXXXXXXXXXXXXX                ",
"                ++++XXXXXXXXXX++++                ",
"                ++++XXXXXXXXXX++++                ",
"                ++++XXXXXXXXXX++++                ",
"                ++++XXXXXXXXXX++++                ",
"                ++++XXXXXXXXXX++++                ",
"                ++++XXXXXXXXXX++++                ",
"                ++++XXXXXXXXXX++++                ",
"                ++++XXXXXXXXXX++++                ",
"                    @@@@  @@@@                    ",
"                    @@@@  @@@@                    ",
"                    @@@@  @@@@                    ",
"                    @@@@  @@@@                    ",
"                    @@@@  @@@@                    ",
"                    @@@@  @@@@                    ",
"                    @@@@  @@@@                    ",
"                    @@@@  @@@@                    ",
"                    @@@@  @@@@                    ",
"                    @@@@  @@@@                    ",
"                    @@@@  @@@@                    ",
"                    @@@@  @@@@                    ",
"                   ..... .....                    ",
"                   ..... .....                    ",
"                                                  ",
"                                                  "
};
