/* XPM */
static char *_start[] = {
/* columns rows colors chars-per-pixel */
"50 50 2 1 ",
"  c #47A3E3",
". c #47C0E3",
/* pixels */
"                                                  ",
"                                                  ",
"                                                  ",
"   ............................................   ",
"   ............................................   ",
"   ............................................   ",
"   ............................................   ",
"   ............................................   ",
"   ............................................   ",
"   ..............                    ..........   ",
"   ..............                    ..........   ",
"   ..............                    ..........   ",
"   ...........   ..............................   ",
"   ...........   ..............................   ",
"   ...........   ..............................   ",
"   ...........   ..............................   ",
"   ...........   ..............................   ",
"   ...........   ..............................   ",
"   ...........   ..............................   ",
"   ...........   ..............................   ",
"   ...........   ..............................   ",
"   ...........   ..............................   ",
"   ...........   ..............................   ",
"   ...........   ..............................   ",
"   ..............                 .............   ",
"   ..............                 .............   ",
"   ..............                 .............   ",
"   ...............................   ..........   ",
"   ...............................   ..........   ",
"   ...............................   ..........   ",
"   ...............................   ..........   ",
"   ...............................   ..........   ",
"   ...............................   ..........   ",
"   ...............................   ..........   ",
"   ...............................   ..........   ",
"   ...............................   ..........   ",
"   ...............................   ..........   ",
"   ...............................   ..........   ",
"   ...............................   ..........   ",
"   .............                  .............   ",
"   .............                  .............   ",
"   .............                  .............   ",
"   ............................................   ",
"   ............................................   ",
"   ............................................   ",
"   ............................................   ",
"   ............................................   ",
"                                                  ",
"                                                  ",
"                                                  "
};
